<svg xmlns="http://www.w3.org/2000/svg" viewBox="0 0 598 506">
  <path d="M378,364 C379,364 383,362 387,361 C395,358 395,358 398,360 C401,364 405,364 408,361 C412,357 416,355 416,356 C417,358 421,357 421,355 C422,354 422,354 424,356 C429,362 433,356 433,342 C433,338 434,337 436,337 C437,336 439,336 440,336 C441,336 441,336 442,337 C442,337 441,338 440,338 C437,338 436,340 439,341 C440,343 440,343 438,347 C436,353 435,357 438,357 C441,359 444,358 445,356 C447,354 447,354 448,355 C449,356 451,357 453,357 C455,357 458,357 460,358 C463,358 465,358 466,357 C467,356 467,356 468,357 C473,361 477,357 477,348 C477,341 477,340 479,340 C480,340 481,339 482,338 C484,334 486,338 486,348 C486,355 486,356 489,358 C495,365 513,360 507,353 C505,352 505,351 506,346 C508,340 506,336 502,339 C501,339 499,340 498,340 C496,340 497,338 500,337 C507,337 509,333 505,328 C502,325 500,324 498,327 C497,328 496,328 494,327 C491,324 489,325 488,328 C486,330 486,330 484,328 C481,326 474,325 472,327 C470,329 468,328 465,326 C462,324 459,323 457,325 C456,327 456,329 459,329 C460,329 460,330 460,331 C459,333 464,338 466,338 C467,338 467,339 467,341 C466,343 466,345 467,346 C469,349 467,351 464,349 C462,348 462,347 462,343 C463,339 462,339 461,338 C460,338 458,335 457,333 C454,328 452,326 449,328 C447,329 447,329 445,328 C444,327 444,327 443,328 C441,329 440,329 438,328 C437,327 431,327 426,327 C420,326 416,326 415,326 C414,325 412,325 412,326 C412,327 413,327 414,327 C416,327 417,330 414,331 C414,331 412,331 411,330 C408,327 402,327 398,328 C395,330 391,331 391,329 C391,329 392,328 394,327 C400,325 398,323 391,325 C387,326 382,326 380,326 C377,326 373,327 372,328 C370,329 370,329 370,328 C370,325 367,323 365,325 C363,327 365,331 368,331 C370,331 370,332 370,336 C370,342 369,343 367,340 C365,337 363,337 363,341 C363,343 363,344 359,344 C353,344 354,347 361,349 C363,349 364,350 364,353 C364,356 365,356 367,356 C369,356 370,357 370,357 C370,360 377,366 378,364 Z M307,361 C312,361 313,361 316,357 C319,354 320,354 321,355 C321,357 325,358 325,355 C326,354 327,354 329,357 C332,359 333,360 339,360 C343,361 347,361 349,362 C351,362 353,362 355,360 C356,359 358,358 359,358 C363,356 358,352 351,350 C347,350 347,348 347,338 C347,327 345,324 340,327 C338,329 338,329 338,327 C337,325 334,324 331,326 C330,327 332,333 335,334 C337,335 338,341 336,344 C335,346 334,345 331,337 C326,328 324,325 321,328 C319,329 314,339 314,341 C314,342 313,344 312,344 C311,345 310,348 310,349 C310,352 309,353 307,352 C306,351 306,350 308,347 C311,342 309,340 303,340 C299,340 297,338 302,337 C310,336 313,332 309,328 C306,324 291,326 288,330 C286,332 286,332 284,330 C282,329 270,326 264,326 C261,326 261,354 265,357 C269,360 275,357 273,353 C272,352 272,351 273,351 C273,351 274,352 274,353 C275,356 278,357 282,358 C285,358 288,360 290,360 C293,361 296,362 298,362 C300,361 304,361 307,361 Z M235,359 C236,358 239,358 243,358 C248,358 251,358 252,357 C254,355 254,342 251,340 C251,338 250,337 250,335 C250,334 249,332 248,331 C247,329 247,328 250,327 C251,326 251,326 250,325 C248,324 247,324 246,326 C246,328 245,328 242,328 C229,326 229,326 228,328 C228,331 227,331 225,328 C224,326 217,326 207,328 C203,329 203,329 201,327 C198,324 198,324 195,327 C193,329 193,329 190,328 C185,325 180,328 177,337 C175,344 174,345 174,340 C174,334 168,327 163,327 C160,327 160,327 159,334 C159,339 158,341 156,339 C155,338 153,338 151,338 C150,338 148,338 148,338 C148,337 150,336 152,336 C156,336 157,336 157,333 C157,329 155,328 145,328 C140,328 138,328 137,327 C136,326 136,326 135,326 C134,330 133,331 131,328 C129,325 128,325 126,326 C125,326 122,326 119,326 C116,327 114,327 113,329 C110,332 110,332 108,330 C106,329 104,328 103,328 C102,328 100,327 100,326 C98,324 89,326 87,329 C84,335 86,356 89,358 C93,360 97,358 98,354 C98,350 98,350 103,350 C107,349 107,349 106,351 C106,353 106,354 107,354 C109,354 110,352 109,350 C108,348 110,346 111,347 C112,347 112,349 112,351 C112,357 114,358 119,358 C123,357 124,356 121,355 C121,354 120,354 121,353 C121,352 123,353 125,355 C128,358 133,359 135,357 C136,356 137,356 138,358 C141,361 151,361 156,358 C158,357 160,356 160,357 C161,358 163,358 178,359 C189,359 191,358 191,351 C191,348 191,344 192,343 C193,339 194,343 194,350 C194,357 195,358 199,358 C201,358 202,359 203,360 C205,362 232,361 235,359 Z M224,352 C222,349 222,348 224,345 C226,343 225,340 222,340 C220,340 221,338 223,337 C224,336 225,336 225,336 C228,340 229,355 227,355 C227,355 225,354 224,352 Z M419,353 C418,352 417,351 417,350 C417,349 416,348 416,346 C412,342 416,337 420,338 C423,339 422,341 420,341 C419,341 418,342 418,342 C418,343 419,344 420,344 C422,344 422,345 422,349 C422,352 422,354 422,354 C422,354 420,353 419,353 Z M336,315 C338,315 340,313 341,312 C344,310 347,309 348,311 C348,312 355,312 372,312 C402,311 404,311 406,307 C407,304 408,304 410,304 C412,305 414,303 413,301 C413,299 406,299 405,301 C404,303 404,303 402,302 C401,300 401,300 402,298 C403,297 404,295 404,294 C406,290 414,291 417,296 C419,301 418,310 415,310 C414,310 414,310 414,311 C414,311 416,312 419,312 C519,312 523,312 522,308 C522,303 520,301 518,301 C516,301 515,263 517,261 C519,258 524,266 524,272 C525,280 534,276 534,268 C534,266 534,266 537,268 C538,271 539,272 539,274 C538,276 538,277 540,277 C543,278 550,291 547,291 C547,291 546,290 545,290 C544,289 543,289 542,290 C540,291 542,294 545,294 C549,295 549,302 546,302 C543,303 538,311 540,312 C541,312 548,312 556,312 C570,312 570,312 571,309 C571,306 571,305 569,303 C564,299 566,282 571,279 C572,278 572,277 572,276 C572,274 573,272 575,270 C576,268 578,264 578,263 C579,261 580,259 581,258 C587,253 582,249 571,251 C561,252 559,254 564,259 C567,262 567,263 564,267 C563,268 562,271 562,272 C562,274 562,275 561,275 C560,275 560,274 560,273 C560,272 559,270 558,269 C555,267 555,264 559,265 C561,265 562,265 562,264 C562,264 562,263 562,262 C562,262 561,261 559,260 C556,258 555,255 557,253 C560,252 559,249 556,248 C555,248 554,248 554,250 C554,253 525,253 522,250 C519,246 516,246 513,250 C512,251 510,252 508,252 C506,252 505,251 504,250 C503,246 501,246 498,249 C497,252 496,252 491,251 C482,251 481,252 481,259 C482,266 476,276 475,270 C474,268 474,268 474,270 C474,276 480,279 482,275 C483,274 483,274 484,275 C487,279 490,277 490,271 C490,269 491,268 492,268 C494,268 493,291 491,292 C489,293 488,292 488,290 C488,290 487,288 486,287 C482,285 478,288 478,292 C478,296 477,298 476,296 C474,294 473,295 474,298 C474,302 474,302 472,302 C469,302 469,302 470,284 C470,270 470,265 469,263 C467,259 466,263 466,279 C466,291 466,295 465,296 C463,297 464,263 466,260 C470,255 466,249 459,251 C457,252 455,252 453,252 C446,250 440,254 444,260 C448,265 447,297 442,294 C442,294 441,294 441,295 C441,296 442,296 443,297 C445,297 446,300 444,302 C442,306 438,299 433,284 C432,280 430,277 429,276 C429,276 428,275 428,273 C428,272 427,269 427,268 C424,263 422,259 422,257 C422,252 414,248 412,251 C411,251 409,253 408,255 C406,257 405,258 405,261 C405,263 404,265 403,267 C401,268 401,271 400,274 C400,279 397,282 397,277 C397,276 396,275 395,275 C394,274 393,274 392,273 C392,273 391,273 391,274 C391,275 392,276 393,276 C395,277 397,289 395,291 C395,292 394,293 394,295 C394,296 394,297 393,297 C392,297 391,298 391,300 C389,303 388,302 388,298 C388,294 389,293 391,293 C395,293 393,291 387,289 C377,287 376,283 382,279 C388,275 390,255 385,252 C380,250 342,251 341,254 C341,256 342,258 344,260 C349,265 349,287 343,292 C340,295 339,300 343,298 C346,297 348,298 346,301 C343,305 336,299 336,293 C336,289 336,288 334,286 C331,285 330,282 332,282 C335,282 338,274 338,268 C338,259 337,257 328,253 C327,253 327,253 330,252 C334,251 335,250 331,248 C327,245 322,248 325,251 C326,252 326,252 323,252 C321,251 319,251 318,251 C316,251 316,251 317,248 C318,245 312,245 310,249 C309,252 309,252 301,252 C291,251 288,253 290,258 C291,260 292,261 293,261 C296,263 294,299 292,302 C286,309 292,313 306,312 C317,311 319,309 315,303 C312,300 312,299 314,293 C315,292 315,291 314,291 C311,290 312,288 314,288 C316,288 318,294 318,298 C318,305 327,318 330,316 C332,316 334,315 336,315 Z M211,311 C213,309 214,307 214,306 C214,301 216,299 219,303 C222,307 228,310 231,310 C232,310 234,311 235,312 C238,315 248,315 251,312 C252,311 254,310 255,309 C260,308 265,304 266,299 C267,297 269,294 270,293 C273,289 273,270 270,268 C269,268 268,266 267,263 C264,258 260,254 255,253 C252,252 250,251 250,249 C248,247 238,246 236,248 C236,249 233,251 230,252 C223,255 219,258 218,260 C218,262 217,263 216,264 C212,269 210,287 213,294 C214,296 212,300 209,300 C208,300 208,297 209,295 C211,294 209,290 207,289 C201,286 200,281 205,280 C207,280 208,279 208,268 C208,256 207,251 203,252 C202,253 198,252 195,252 C189,250 176,250 152,252 C144,252 143,253 140,255 C136,259 136,261 140,260 C143,260 143,260 143,276 C143,289 143,292 144,292 C145,292 146,290 146,280 C146,265 146,262 147,262 C149,264 148,290 146,295 C142,302 137,305 132,301 C128,297 127,263 132,259 C139,253 135,250 121,251 C107,251 103,254 109,260 C111,261 111,263 111,275 C111,301 113,306 125,311 C133,315 139,315 140,312 C140,311 141,310 143,310 C147,310 153,306 154,302 C155,297 155,297 158,298 C161,298 164,295 162,293 C160,291 161,260 162,260 C165,260 165,263 165,282 C165,300 165,300 162,304 C158,308 159,309 166,310 C188,313 193,311 185,303 C183,300 181,295 182,295 C185,295 188,298 188,300 C192,312 203,318 211,311 Z M71,311 C75,309 76,308 76,305 C76,301 74,299 73,301 C72,303 70,304 70,301 C70,292 82,288 86,297 C87,300 88,302 87,303 C83,310 97,315 108,310 C112,308 113,307 110,305 C109,303 108,302 109,300 C109,296 108,292 105,290 C103,287 100,282 96,271 C86,242 77,242 70,273 C70,274 68,278 67,281 C65,284 64,287 64,289 C64,291 64,291 61,291 C59,290 59,290 59,293 C60,295 60,297 59,297 C59,298 58,300 58,302 C57,309 48,305 48,298 C47,283 48,262 49,262 C50,262 51,264 52,266 C52,271 55,277 58,277 C59,278 60,279 60,280 C62,283 63,281 63,276 C63,274 63,269 64,266 C65,262 65,262 66,267 C67,269 69,267 69,264 C69,263 68,262 67,261 C66,260 65,258 65,256 C64,251 62,249 59,251 C56,252 50,252 48,249 C46,247 45,248 43,250 C42,252 41,252 35,252 C13,250 8,251 11,261 C12,264 12,266 11,268 C8,275 11,279 16,275 C21,272 22,270 22,266 C22,262 23,262 26,265 C29,268 29,301 26,302 C21,304 19,309 24,310 C25,310 27,311 28,311 C29,312 34,312 43,312 C55,311 57,311 58,313 C60,315 65,314 71,311 Z M488,301 C488,297 489,296 491,299 C494,304 496,289 495,273 C495,264 495,261 496,261 C498,259 498,261 498,281 C498,301 498,303 493,303 C492,303 491,303 490,304 C489,306 488,305 488,301 Z M237,302 C235,301 234,299 233,297 C233,296 232,293 231,290 C226,275 236,251 244,260 C245,261 247,262 248,262 C253,262 253,296 248,297 C248,298 247,299 247,299 C247,304 242,305 237,302 Z M365,302 C364,302 364,299 364,294 C365,286 366,284 368,289 C370,293 372,294 375,293 C378,291 381,294 378,297 C375,299 374,300 374,301 C373,302 367,303 365,302 Z M289,298 C291,292 291,284 290,284 C289,284 289,286 289,288 C289,291 289,292 287,292 C286,292 285,290 285,277 C285,262 284,258 283,266 C282,274 281,277 279,277 C278,278 277,279 277,283 C276,285 276,288 276,289 C275,291 277,293 278,293 C279,292 280,291 280,289 C280,287 280,285 281,284 C282,283 282,284 282,287 C282,289 283,292 284,292 C284,293 285,295 285,296 C285,301 288,302 289,298 Z M136,285 C136,265 135,262 133,276 C132,289 133,294 135,293 C136,292 136,290 136,285 Z M183,277 C182,276 182,264 183,262 C185,259 187,259 187,262 C187,264 188,265 189,266 C191,267 192,271 189,272 C189,272 187,274 186,275 C185,278 184,279 183,277 Z M365,273 C363,268 364,264 367,264 C369,264 370,263 370,262 C372,258 378,263 378,267 C378,269 378,269 377,268 C374,265 369,267 368,273 C368,277 367,277 365,273 Z M310,219 C312,218 314,217 315,216 C316,215 319,213 322,211 C328,208 332,203 332,198 C332,196 332,195 333,194 C334,194 334,195 334,197 C334,199 335,200 336,201 C339,202 388,203 390,201 C393,199 392,135 389,133 C387,131 387,131 391,127 C396,123 398,116 395,114 C394,114 394,111 395,111 C398,110 404,112 407,116 C410,118 411,118 417,118 C428,117 431,113 423,109 C421,108 419,106 419,106 C419,105 420,105 423,106 C426,106 427,106 427,105 C427,103 420,100 418,101 C415,103 413,102 411,100 C410,98 410,98 407,99 C403,101 402,100 405,96 C407,95 409,92 410,89 C412,87 413,85 414,85 C416,85 420,63 419,58 C418,56 417,52 417,48 C416,44 415,41 413,39 C411,37 410,35 410,35 C410,33 401,21 400,21 C396,19 394,22 394,28 C396,45 396,46 394,52 C389,66 377,73 369,66 C368,64 364,61 362,60 C358,57 358,57 358,41 C359,21 360,22 343,22 C329,21 325,22 325,25 C325,30 319,28 311,20 C300,9 292,9 285,19 C284,21 282,22 280,22 C279,23 275,26 272,29 C268,32 264,36 262,36 C261,37 258,39 256,41 C254,43 251,45 250,45 C250,45 246,48 242,52 C238,56 234,59 232,60 C230,61 227,63 226,65 C225,67 223,68 222,69 C219,69 220,71 222,72 C224,72 225,73 225,73 C225,75 220,74 219,72 C218,72 217,71 216,71 C214,71 203,59 201,55 C198,48 197,37 200,32 C206,19 196,15 189,27 C187,29 186,31 185,32 C184,33 183,34 183,35 C183,35 182,39 180,42 C176,49 175,62 176,73 C177,79 177,79 175,81 C172,83 172,85 175,85 C176,85 177,84 178,83 C178,80 180,81 180,85 C180,87 183,91 184,91 C185,91 187,92 188,93 C191,96 188,99 182,100 C178,101 170,110 170,113 C170,117 177,120 182,117 C187,114 194,117 198,123 C200,126 202,130 202,131 C202,132 202,133 203,133 C204,133 204,145 203,167 C203,199 203,201 205,201 C206,202 216,202 229,202 C241,202 252,202 253,203 C255,204 256,203 258,201 C261,198 261,198 263,202 C265,206 264,206 260,206 C256,205 255,205 253,208 C251,211 250,213 253,211 C253,210 255,210 258,210 C261,211 263,211 264,209 C267,206 272,209 277,217 C280,220 303,221 310,219 Z M257,190 C255,188 255,188 238,188 C218,188 216,187 219,180 C220,178 220,176 219,170 C217,158 217,142 219,138 C221,134 221,134 229,134 C238,134 238,134 240,142 C243,152 244,155 250,162 C256,167 257,170 259,182 C261,192 260,194 257,190 Z M292,191 C291,190 291,188 291,187 C290,184 289,183 280,180 C278,179 278,179 280,176 C281,175 282,171 283,168 C284,165 285,161 286,160 C288,155 288,150 286,149 C284,148 284,147 284,143 C284,133 277,122 269,117 C267,116 265,115 264,113 C263,112 261,110 259,110 C256,109 255,106 258,104 C259,102 259,102 258,100 C256,98 256,98 258,95 C259,94 260,91 260,90 C261,84 282,83 289,88 C290,89 292,90 294,90 C295,90 297,90 299,91 C301,92 305,91 307,88 C310,84 315,83 329,86 C333,87 338,94 338,101 C338,102 338,103 339,104 C341,105 340,108 337,110 C335,110 332,112 332,113 C331,114 328,116 326,117 C321,119 314,127 314,129 C314,130 313,131 312,132 C307,138 306,168 311,173 C316,176 316,179 314,180 C303,184 303,184 303,188 C302,192 302,192 297,192 C294,192 292,192 292,191 Z M336,182 C337,171 338,168 342,163 C348,155 352,150 354,142 C356,134 359,132 361,135 C362,135 366,135 370,135 C378,136 378,136 378,162 C378,188 378,188 363,188 C354,188 346,188 344,187 C342,186 341,186 339,188 C336,190 336,190 336,182 Z M249,184 C249,183 244,183 234,183 C226,183 220,183 220,184 C220,185 226,185 234,185 C244,185 249,185 249,184 Z M323,158 C321,146 322,145 328,143 C335,141 340,135 340,131 C339,128 340,125 341,125 C342,125 342,127 342,130 C342,138 339,145 335,145 C332,145 332,146 333,149 C334,151 334,151 333,152 C332,153 326,161 326,163 C326,166 324,163 323,158 Z M268,162 C268,162 266,159 264,156 C261,151 261,150 262,149 C264,148 263,147 261,147 C257,147 252,137 252,131 C252,128 252,125 253,125 C254,125 254,126 254,128 C254,131 259,141 260,141 C271,143 274,147 271,158 C270,162 268,165 268,162 Z M222,121 C216,119 220,116 231,116 C238,116 239,117 231,120 C229,121 226,122 226,122 C226,122 224,121 222,121 Z M190,114 C190,113 190,112 191,112 C192,112 194,110 195,109 C198,106 207,105 207,107 C207,108 206,108 206,108 C205,108 203,110 200,112 C196,115 192,116 190,114 Z M230,100 C229,99 228,98 229,98 C229,98 228,97 227,96 C225,94 221,93 218,95 C216,96 207,92 204,89 C202,88 202,87 205,88 C208,88 209,88 210,86 C212,85 213,85 220,87 C227,90 230,90 236,90 C245,90 245,90 242,97 C240,101 233,103 230,100 Z M353,99 C352,98 352,97 352,96 C351,94 351,93 351,92 C350,90 351,90 361,90 C372,90 373,90 374,88 C375,87 376,86 377,86 C379,86 380,87 378,89 C376,90 378,92 380,92 C382,92 383,89 381,87 C380,87 382,85 385,83 C392,80 398,75 400,70 C404,63 405,68 402,76 C400,79 399,81 396,81 C393,82 391,84 393,85 C395,87 381,96 376,96 C375,96 373,97 372,98 C367,102 359,100 361,96 C361,95 361,93 360,93 C358,92 356,93 356,95 C356,99 353,102 353,99 Z M197,81 C195,79 193,76 192,74 C192,73 191,70 191,69 C189,65 191,66 194,71 C196,74 198,77 200,77 C204,77 206,81 203,83 C201,86 201,86 197,81 Z M238,75 C237,74 242,72 247,72 C253,72 255,71 254,69 C253,69 252,68 250,68 C246,68 248,65 254,62 C257,60 261,58 262,56 C263,54 268,51 272,48 C276,45 280,41 281,40 C282,39 284,38 285,38 C285,38 288,36 290,34 C296,27 297,27 302,31 C304,33 308,36 310,37 C312,38 314,39 314,41 C315,42 316,44 318,44 C319,45 321,47 323,48 C325,51 333,54 335,53 C336,52 338,43 338,41 C337,40 339,36 340,36 C341,36 341,39 340,44 C340,52 341,55 344,54 C345,54 346,55 346,60 C347,69 352,74 359,74 C363,74 364,74 363,75 C362,77 341,75 332,72 C322,69 318,69 305,73 C297,75 297,75 289,72 C279,69 267,69 263,71 C258,75 239,77 238,75 Z" fill="white" fill-rule="evenodd"/>
</svg>