<svg xmlns="http://www.w3.org/2000/svg" viewBox="0 0 598 506">
  <path d="M16,501 C18,498 18,487 17,486 C13,483 10,486 10,495 C10,500 13,504 16,501 Z M363,499 C365,496 363,495 357,495 C355,495 352,495 351,494 C349,494 346,496 346,498 C346,502 362,503 363,499 Z M362,452 C366,449 364,448 356,447 C349,447 346,447 346,450 C346,454 359,456 362,452 Z M410,453 C413,451 411,448 405,447 C396,446 392,448 395,452 C397,454 407,455 410,453 Z M555,435 C557,432 555,431 548,431 C541,431 538,431 538,434 C538,438 554,439 555,435 Z M506,410 C510,407 507,404 498,405 C487,405 487,411 498,411 C502,411 505,412 505,412 C505,412 506,411 506,410 Z M128,405 C130,404 130,390 128,389 C124,387 123,389 123,397 C123,404 123,406 126,406 C126,406 127,406 128,405 Z M146,373 C152,373 152,372 146,370 C140,369 139,367 141,364 C143,362 167,363 170,365 C172,368 185,368 188,366 C190,364 214,360 216,362 C217,362 221,363 225,363 C238,364 240,371 227,370 C205,369 202,370 205,372 C206,374 247,374 249,373 C252,371 254,343 252,341 C251,340 251,338 251,336 C251,331 244,325 239,327 C238,328 236,327 234,327 C231,326 230,326 228,327 C227,329 227,329 225,327 C224,326 222,325 221,326 C217,327 203,328 201,326 C198,324 195,325 194,328 C193,330 193,330 189,327 C184,321 168,322 172,327 C174,329 180,330 180,328 C180,327 181,327 181,327 C182,327 182,328 180,329 C179,330 178,334 177,337 C176,344 174,345 174,339 C174,334 173,331 171,331 C170,331 169,330 168,329 C166,326 159,324 157,326 C155,328 152,328 150,326 C148,324 146,325 144,327 C142,330 138,330 137,327 C137,326 137,324 138,324 C140,322 139,319 137,319 C129,317 125,317 124,319 C124,320 126,323 130,324 C134,324 135,326 133,327 C132,328 132,328 130,327 C128,325 127,325 121,326 C115,327 114,327 112,325 C110,324 108,324 100,323 C90,323 90,323 88,328 C86,333 85,343 86,351 C87,354 87,355 85,356 C83,357 82,354 83,349 C83,344 82,340 80,340 C79,340 78,340 78,341 C78,341 78,344 78,347 C77,350 77,354 75,356 C72,362 75,364 85,364 C95,364 97,363 98,356 C98,351 100,349 104,349 C107,349 107,351 104,352 C101,353 99,356 100,356 C102,358 108,356 110,354 C111,352 113,352 113,355 C113,355 112,356 110,357 C102,359 106,364 116,364 C122,364 122,364 123,370 C124,373 136,375 146,373 Z M363,372 C364,371 364,369 364,366 C364,361 365,361 371,368 C376,373 376,373 382,373 C389,373 391,371 385,369 C379,368 380,363 386,363 C387,363 389,363 390,362 C391,360 396,360 398,361 C401,364 407,363 411,359 C414,356 416,355 418,356 C421,356 421,355 417,348 C414,342 414,341 416,340 C418,339 420,339 420,340 C420,341 419,341 418,341 C418,341 417,342 417,343 C417,344 418,345 419,345 C421,345 422,346 422,350 C423,352 424,355 425,356 C426,358 427,359 427,360 C428,365 443,364 443,360 C443,356 447,353 449,355 C450,356 452,357 453,357 C456,357 457,358 459,360 C460,363 470,365 473,363 C475,362 477,355 478,349 C478,344 478,343 481,340 C485,335 488,340 486,352 C485,362 485,362 495,363 C507,363 512,359 507,353 C506,351 505,350 506,346 C507,341 507,340 505,339 C503,337 503,337 505,336 C507,335 509,331 507,329 C505,327 507,326 511,326 C514,326 517,326 518,325 C523,324 519,323 507,323 C494,322 494,322 490,325 C486,328 482,328 477,325 C472,322 471,322 466,323 C461,324 459,324 455,323 C447,321 429,323 427,325 C425,327 424,327 420,325 C417,324 416,324 414,325 C411,326 410,328 412,328 C413,328 414,328 414,329 C414,330 413,330 412,330 C412,330 411,330 411,329 C411,328 410,328 409,328 C406,328 405,326 405,317 C405,305 409,303 411,314 C412,321 423,323 427,317 C428,315 428,315 439,315 C447,316 452,316 454,315 C459,313 471,315 474,318 C477,320 490,320 492,317 C493,315 494,315 508,315 C523,315 523,315 523,312 C522,310 522,307 521,304 C521,302 520,300 518,300 C515,300 514,261 517,261 C518,261 519,285 518,290 C517,295 518,297 521,296 C522,295 522,294 522,287 C521,279 522,267 523,269 C523,269 524,271 524,273 C525,279 533,277 533,270 C533,269 533,267 534,266 C535,264 539,271 538,273 C537,275 537,277 539,284 C539,286 541,287 541,284 C541,280 543,280 545,283 C547,287 548,291 546,289 C543,287 541,288 541,291 C541,294 543,297 546,297 C548,297 548,300 547,302 C546,302 545,303 544,303 C540,303 538,311 541,313 C542,314 563,314 570,314 C572,314 571,307 568,302 C563,295 566,278 572,282 C574,283 574,283 575,281 C577,279 577,279 575,276 C573,274 573,274 574,271 C575,270 577,266 578,263 C580,261 581,258 582,258 C586,255 582,250 574,250 C564,250 560,254 563,258 C565,261 566,265 564,265 C563,265 563,264 563,264 C563,263 561,261 559,259 C554,255 554,255 557,253 C560,250 559,247 554,247 C552,247 551,247 551,249 C551,250 550,251 543,252 C533,253 526,252 523,249 C522,248 520,247 520,247 C519,247 518,247 517,246 C516,246 514,248 512,249 C508,253 506,253 504,249 C503,246 501,246 498,249 C497,251 495,251 490,251 C482,251 481,252 481,259 C481,264 477,274 475,271 C475,270 475,268 475,266 C476,265 476,261 477,259 C478,254 479,251 481,248 C483,245 481,244 479,247 C473,252 470,253 468,252 C467,251 464,251 460,251 C455,252 454,252 451,249 C448,248 446,247 446,248 C445,249 445,249 446,250 C447,251 447,251 445,252 C442,254 441,257 444,260 C446,263 446,268 446,288 C446,301 441,307 438,297 C438,296 437,292 436,290 C434,287 433,283 432,281 C431,280 430,278 429,277 C429,276 428,274 428,271 C428,268 427,267 426,265 C424,264 423,261 422,259 C421,253 421,252 416,249 C411,246 411,246 411,249 C411,251 410,253 408,256 C405,258 404,260 404,262 C404,264 404,265 403,265 C402,265 402,264 402,264 C402,263 401,262 400,261 C399,260 398,259 398,258 C397,255 395,256 393,258 C391,262 389,262 389,259 C389,254 384,251 377,251 C372,251 372,251 373,249 C374,247 374,246 373,246 C372,244 369,246 368,248 C368,250 366,251 363,248 C360,246 357,245 356,246 C353,246 354,248 356,249 C363,252 356,254 349,252 C340,248 337,255 344,261 C346,262 347,273 345,275 C344,275 344,276 345,278 C347,280 347,283 346,285 C346,288 344,286 344,284 C344,280 342,278 341,280 C339,282 339,286 341,289 C342,291 342,291 341,293 C339,296 340,298 343,298 C345,298 346,298 346,300 C346,303 343,302 339,299 C336,297 336,296 336,293 C337,291 337,290 334,287 C332,284 332,284 334,282 C341,273 341,259 334,256 C327,253 326,253 326,252 C327,252 329,252 330,252 C333,252 334,251 334,250 C334,247 330,246 325,246 C323,247 320,247 319,246 C316,244 310,246 309,249 C308,252 303,253 299,251 C291,247 286,254 292,261 C295,264 295,264 295,278 C294,299 293,300 291,302 C288,305 288,312 291,314 C293,316 314,316 315,314 C317,311 317,305 315,302 C313,301 313,299 313,297 C314,293 316,292 317,295 C317,296 318,299 320,303 C322,308 322,309 321,311 C318,318 327,322 332,317 C333,316 334,315 336,315 C341,315 342,315 343,312 C343,310 346,309 346,311 C346,315 348,315 362,315 C374,315 377,316 378,317 C380,318 383,319 386,319 C396,321 397,323 387,325 C382,326 381,326 378,324 C376,322 374,322 362,323 C347,323 343,325 356,326 C362,326 363,326 364,328 C366,331 369,330 369,328 C370,325 372,324 373,326 C374,326 373,328 372,329 C371,331 370,334 370,336 C370,340 370,340 368,339 C365,338 364,338 363,341 C363,343 362,343 358,343 C352,343 346,340 347,337 C347,334 345,326 344,325 C343,325 342,326 341,327 C339,330 339,330 337,327 C336,325 331,324 329,326 C328,327 326,328 324,328 C321,328 320,328 318,332 C315,337 315,337 308,340 C305,341 304,341 301,340 C298,339 300,337 305,337 C309,337 311,335 311,330 C311,327 311,326 313,325 C317,324 314,323 308,323 C304,323 301,324 299,324 C295,328 284,329 278,327 C264,323 260,327 262,345 C263,351 263,356 264,356 C264,357 271,357 273,356 C274,355 276,356 286,361 C294,365 312,363 316,358 C319,354 319,354 321,355 C322,356 324,357 325,357 C328,357 329,357 330,360 C332,363 337,364 349,363 C358,363 360,364 356,369 C354,371 353,371 348,370 C339,369 331,372 337,373 C340,374 362,373 363,372 Z M593,371 C595,370 594,359 592,357 C587,353 584,366 588,372 C588,374 592,373 593,371 Z M361,354 C360,354 357,352 354,351 C346,349 346,345 354,347 C356,348 359,348 361,349 C364,349 365,352 364,355 C364,356 363,356 361,354 Z M432,354 C432,353 433,350 434,347 C435,344 435,342 434,341 C433,339 433,337 436,337 C437,336 439,336 440,336 C441,335 442,335 442,336 C442,337 441,338 440,338 C439,339 439,340 439,342 C440,344 439,345 438,348 C436,350 435,352 435,353 C435,354 434,355 434,355 C433,355 432,354 432,354 Z M224,351 C222,349 222,349 223,346 C225,343 225,343 223,341 C221,339 221,339 222,338 C226,336 229,341 228,348 C228,354 227,354 224,351 Z M334,343 C333,340 331,337 330,336 C330,334 329,332 329,331 C329,329 331,330 332,333 C333,334 334,336 335,336 C337,337 337,338 337,341 C337,347 336,348 334,343 Z M258,335 C260,328 259,325 256,325 C253,325 252,327 253,330 C254,331 254,334 254,336 C254,343 256,342 258,335 Z M249,323 C250,319 249,318 242,318 C239,318 237,319 236,320 C234,322 236,324 240,324 C242,324 244,325 245,326 C248,328 249,328 249,323 Z M60,318 C62,316 64,315 66,315 C68,315 76,311 76,310 C76,310 77,309 78,309 C82,308 83,300 81,296 C79,293 80,292 82,293 C84,293 87,301 86,305 C86,308 86,308 88,309 C90,310 91,311 91,312 C92,316 106,316 107,313 C107,311 109,310 110,309 C112,308 112,308 110,305 C110,304 109,301 109,298 C108,292 106,288 104,287 C102,287 98,278 98,274 C97,268 89,250 86,250 C80,248 74,254 72,262 C72,268 70,271 70,266 C70,265 69,263 68,262 C67,260 66,258 66,255 C65,251 65,250 59,248 C51,245 45,245 43,249 C40,252 34,253 30,250 C28,249 28,249 26,250 C25,251 22,251 19,251 C14,250 10,253 10,257 C10,258 9,259 8,260 C1,263 3,277 9,277 C18,277 21,275 21,268 C21,263 24,260 25,263 C25,263 26,264 26,264 C28,264 29,279 28,292 C28,293 26,293 25,293 C23,293 21,293 21,294 C20,295 23,297 25,297 C29,296 29,299 25,301 C19,304 19,310 25,310 C25,310 26,310 26,311 C26,314 30,316 35,316 C39,316 41,317 42,317 C43,318 46,319 50,319 C54,319 57,320 57,320 C57,320 58,319 60,318 Z M192,317 C192,316 191,315 190,314 C188,314 188,313 188,310 C188,307 187,305 185,302 C182,299 181,295 182,295 C185,295 188,298 188,300 C189,301 190,304 192,306 C193,307 194,310 195,312 C196,316 211,317 211,313 C211,312 212,309 213,306 C216,300 218,299 220,304 C221,306 227,310 230,310 C231,310 233,311 235,312 C242,317 261,310 266,301 C267,298 269,295 270,293 C271,292 272,289 272,286 C272,284 272,279 273,277 C274,271 273,269 270,267 C268,266 267,265 266,262 C265,258 260,253 256,253 C253,253 249,251 249,249 C249,246 238,246 236,248 C235,250 221,256 220,255 C220,254 221,253 221,252 C223,250 223,248 222,248 C219,248 216,256 217,260 C217,262 217,264 216,265 C212,269 210,288 213,293 C213,295 210,300 209,300 C207,300 208,297 210,295 C211,293 209,288 207,288 C206,288 205,287 204,286 C201,284 202,281 205,281 C208,282 208,281 208,267 C209,253 207,249 203,252 C200,253 200,253 197,252 C193,250 163,250 155,252 C148,253 144,252 149,250 C150,249 152,248 152,247 C152,245 152,245 143,247 C139,247 138,249 140,251 C141,252 140,254 137,258 C132,262 132,262 132,274 C132,287 133,292 135,293 C137,294 138,292 137,277 C137,262 137,260 141,260 C143,260 143,261 143,275 C143,284 143,291 144,291 C144,291 145,280 146,267 C146,258 148,265 149,277 C149,290 149,290 145,296 C140,304 137,305 132,300 C128,296 129,265 133,259 C139,253 137,252 124,251 C107,250 103,253 110,260 C112,263 112,264 112,273 C110,299 114,309 131,314 C137,315 139,315 140,312 C141,309 141,309 145,309 C150,309 154,306 154,301 C154,298 156,296 157,298 C157,300 161,299 162,298 C163,295 164,296 164,299 C164,302 163,303 159,306 C153,310 153,311 156,314 C158,316 159,316 171,315 C183,315 184,315 186,317 C188,319 191,319 192,317 Z M287,304 C291,296 291,293 291,276 C291,261 289,262 289,277 C289,285 288,290 287,291 C286,293 285,285 285,276 C286,268 285,263 284,263 C282,263 279,271 279,273 C280,275 279,277 278,278 C276,280 274,291 276,292 C277,294 281,292 280,290 C280,288 281,285 282,285 C283,285 284,291 284,296 C284,297 284,300 283,302 C280,308 284,310 287,304 Z M413,305 C415,298 411,296 405,300 C402,302 401,301 404,295 C406,292 406,291 408,291 C410,292 412,292 413,292 C414,292 415,293 415,293 C415,294 416,296 417,298 C419,302 419,305 415,307 C413,308 413,308 413,305 Z M50,303 C49,303 49,301 49,299 C49,297 49,295 49,294 C49,294 49,291 49,287 C50,282 50,278 48,273 C47,265 47,262 50,262 C51,262 52,264 52,269 C53,272 54,275 54,276 C56,277 61,277 61,276 C61,273 63,271 67,271 C71,270 71,272 67,282 C64,288 63,290 61,290 C59,290 59,291 59,293 C60,296 60,296 58,296 C56,296 56,296 56,300 C57,304 57,304 54,304 C52,304 50,304 50,303 Z M76,302 C76,301 75,301 73,301 C70,302 69,300 71,297 C72,296 73,295 73,294 C74,289 76,292 77,298 C77,301 77,304 77,304 C76,304 76,303 76,302 Z M237,302 C231,298 228,278 233,267 C236,260 240,257 243,259 C244,259 246,261 248,262 C250,262 251,264 251,265 C251,266 251,272 252,278 C253,293 252,296 246,295 C241,295 241,295 244,299 C248,303 244,306 237,302 Z M488,297 C488,287 485,284 479,288 C477,289 477,289 476,288 C475,286 475,286 473,287 C472,288 472,296 473,298 C475,299 474,302 472,302 C470,302 469,288 469,271 C469,266 469,263 468,263 C467,263 467,268 467,276 C467,289 466,298 464,297 C464,296 464,289 463,280 C463,264 463,264 467,260 C473,253 473,254 473,269 C473,283 474,285 476,283 C477,283 477,282 476,282 C475,281 475,276 476,276 C476,276 478,277 480,277 C481,278 483,279 483,278 C484,277 485,277 487,277 C489,277 490,275 490,271 C490,267 492,269 492,274 C493,280 493,283 490,283 C490,283 489,283 489,284 C489,285 490,285 490,285 C493,285 493,291 491,293 C489,294 489,295 490,298 C490,301 490,303 489,303 C488,304 488,302 488,297 Z M365,302 C363,301 364,300 366,299 C369,298 370,296 368,295 C367,294 366,292 365,290 C365,286 365,286 366,287 C367,288 368,289 368,290 C368,293 371,294 374,294 C379,293 380,295 377,296 C375,296 374,298 373,299 C372,303 367,305 365,302 Z M163,291 C161,288 161,261 162,261 C165,261 165,263 165,274 C165,286 164,293 163,291 Z M442,285 C442,279 441,276 439,277 C436,278 437,292 440,292 C441,292 442,290 442,285 Z M390,288 C389,287 388,287 386,287 C379,287 376,283 382,282 C387,281 390,279 388,277 C386,274 388,265 390,267 C390,268 391,270 391,272 C391,274 392,276 392,276 C393,277 394,278 394,280 C395,282 395,284 396,286 C396,289 391,291 390,288 Z M497,285 C495,283 495,261 497,261 C498,261 499,283 498,285 C498,286 497,286 497,285 Z M585,271 C586,265 584,264 581,269 C579,273 578,276 581,277 C583,278 585,276 585,271 Z M183,269 C183,261 185,257 187,262 C187,264 189,265 189,265 C192,266 191,273 188,273 C188,273 187,274 186,275 C184,279 183,277 183,269 Z M396,275 C393,273 392,263 394,261 C395,261 401,267 401,269 C401,276 400,278 396,275 Z M365,272 C362,268 363,260 365,264 C367,266 370,265 371,262 C371,259 372,259 375,262 C378,266 378,268 375,268 C372,267 369,268 369,272 C368,276 366,276 365,272 Z M106,270 C106,267 103,261 100,262 C99,262 99,269 101,272 C103,274 105,273 106,270 Z M26,245 C25,245 24,244 22,244 C21,244 18,243 17,242 C14,239 11,239 11,242 C11,246 15,248 22,247 C26,247 27,247 26,245 Z M154,235 C156,232 155,230 149,229 C140,228 136,230 139,234 C141,236 152,237 154,235 Z M282,235 C285,232 277,223 273,226 C272,226 271,227 269,228 C267,229 266,232 267,234 C269,236 280,237 282,235 Z M570,234 C571,234 572,233 572,232 C572,227 554,227 554,232 C554,236 565,238 570,234 Z M302,226 C306,225 308,225 310,226 C315,228 318,226 313,223 C311,222 285,222 284,224 C280,228 290,229 302,226 Z M314,216 C317,214 320,212 322,211 C326,210 330,206 331,200 C332,197 332,197 334,199 C337,202 342,203 348,202 C353,201 359,201 372,202 C383,203 390,202 391,202 C392,201 392,192 392,169 C392,132 392,132 388,132 C386,132 386,132 388,131 C389,130 391,128 393,127 C395,125 397,124 403,123 C409,123 410,122 411,120 C412,118 415,117 419,117 C426,117 429,113 424,110 C420,108 420,106 423,106 C427,106 427,104 424,102 C421,100 419,99 416,101 C414,102 413,102 412,100 C410,99 409,98 407,99 C402,101 402,99 407,95 C414,86 417,80 419,71 C419,66 420,65 422,65 C426,64 426,60 423,60 C420,61 420,61 418,52 C417,44 416,42 412,38 C410,35 410,34 411,30 C411,27 411,25 410,25 C409,25 409,26 409,27 C409,30 407,29 403,25 C397,16 390,18 389,28 C388,35 389,37 393,37 C400,37 395,55 386,64 C382,68 381,68 380,67 C378,66 378,66 376,67 C374,69 373,69 370,66 C368,64 364,61 361,59 C357,55 357,55 357,48 C359,25 359,25 357,24 C354,22 333,21 329,22 C328,23 327,23 324,22 C322,20 318,20 318,22 C318,23 319,24 321,24 C324,25 325,27 322,27 C320,27 312,21 309,17 C303,9 293,10 285,18 C283,20 281,22 280,22 C279,22 276,24 273,26 C269,30 269,30 261,31 C252,31 251,31 250,35 C249,37 248,37 245,37 C242,37 241,37 241,38 C242,39 244,39 250,39 C258,39 258,39 255,42 C253,44 251,45 250,45 C249,45 246,47 244,49 C238,54 238,54 238,48 C239,42 235,41 235,47 C235,50 234,52 234,53 C233,55 233,55 235,56 C237,57 237,57 233,59 C231,60 226,63 224,66 C218,71 215,72 211,67 C210,66 207,63 206,61 C200,55 196,40 199,35 C200,34 201,31 201,28 C202,25 202,21 203,19 C203,14 203,14 194,15 C187,15 184,18 187,22 C190,25 189,27 185,29 C181,30 181,30 181,35 C181,37 180,40 180,41 C177,45 175,60 175,64 C176,67 176,70 177,72 C177,75 177,77 175,79 C172,83 172,85 175,85 C177,85 178,86 179,87 C179,88 181,90 183,91 C190,94 189,99 182,99 C180,99 179,100 178,101 C177,105 171,109 172,105 C173,103 169,100 167,101 C164,101 164,104 165,111 C166,116 166,116 172,117 C176,118 179,118 182,117 C185,116 192,116 194,118 C195,119 201,129 201,130 C201,131 201,132 202,132 C203,133 203,135 203,138 C203,140 203,151 203,160 C204,170 203,180 203,182 C201,192 203,200 208,202 C212,204 213,204 216,203 C220,201 247,201 253,203 C255,203 256,203 258,201 C260,199 260,199 262,201 C264,203 263,204 258,205 C254,206 250,208 250,209 C250,209 243,210 236,210 C222,211 219,212 222,213 C224,214 253,213 254,212 C255,212 257,211 260,211 C262,210 266,210 267,209 C270,209 273,211 276,215 C278,219 279,219 295,220 C310,220 310,220 314,216 Z M371,213 C386,212 388,212 388,209 C388,207 387,207 383,207 C381,207 378,206 376,205 C373,203 341,205 338,208 C335,210 336,211 342,211 C345,211 348,212 349,213 C352,214 352,214 371,213 Z M214,210 C217,210 220,209 221,208 C222,207 225,207 235,207 C245,207 248,207 249,206 C250,203 206,205 204,208 C202,210 204,212 208,211 C209,211 212,211 214,210 Z M349,210 C347,208 351,207 364,207 C374,207 378,208 378,209 C378,210 377,210 374,210 C372,210 366,210 360,211 C353,211 349,211 349,210 Z M291,191 C291,190 291,188 290,187 C290,183 289,182 286,182 C281,182 278,179 280,176 C281,175 282,173 282,173 C282,172 283,169 285,166 C289,158 290,153 289,142 C289,133 289,133 285,133 C283,133 282,132 281,130 C280,129 278,126 276,123 C272,119 272,118 273,116 C276,109 272,99 267,99 C266,99 265,98 264,97 C263,94 261,93 261,96 C261,99 259,101 257,100 C256,99 256,98 258,94 C260,91 261,88 261,87 C261,83 280,84 290,88 C299,92 307,93 307,89 C307,85 320,81 324,84 C325,85 327,86 329,86 C332,86 339,97 338,101 C337,101 338,103 339,104 C340,107 339,108 335,109 C334,110 332,111 331,113 C329,115 323,119 320,119 C320,119 319,120 318,121 C317,122 317,122 317,121 C317,117 317,117 313,117 C310,117 309,117 309,118 C309,119 309,123 309,127 C309,131 309,135 309,136 C308,163 308,171 312,174 C313,176 315,178 315,178 C315,179 309,182 305,183 C304,184 303,185 302,185 C301,190 301,191 300,188 C299,185 297,182 295,183 C295,184 295,186 296,187 C298,190 298,190 297,191 C295,192 292,192 291,191 Z M257,188 C256,187 252,187 248,188 C244,189 231,188 231,187 C232,187 236,186 240,186 C252,185 252,182 241,182 C235,182 235,182 235,180 C237,176 235,175 228,175 C219,175 219,174 219,160 C219,152 219,148 218,145 C216,141 217,140 226,140 C233,140 234,139 235,137 C236,133 238,134 240,140 C242,147 240,153 238,146 C237,143 234,142 235,145 C235,146 235,148 235,150 C235,153 236,155 237,157 C238,158 239,160 239,162 C239,163 240,164 241,164 C243,164 243,164 243,162 C241,157 241,153 242,153 C243,153 247,159 249,162 C249,164 251,166 252,166 C255,166 258,174 259,180 C259,183 259,187 259,188 C260,190 258,191 257,188 Z M363,188 C360,186 364,185 371,185 C375,185 377,185 377,186 C377,189 366,190 363,188 Z M336,185 C335,183 336,180 337,178 C337,176 338,173 338,172 C338,168 340,166 342,167 C343,167 344,167 344,166 C345,165 344,165 344,165 C343,165 342,164 342,164 C342,162 345,159 348,159 C350,159 351,158 352,158 C353,156 354,150 353,149 C352,148 357,134 358,134 C359,134 361,138 362,141 C363,143 364,143 369,143 C379,143 379,143 378,164 C378,173 378,182 378,182 C378,182 371,183 363,183 C347,183 347,183 349,186 C350,188 350,188 348,188 C345,188 343,186 344,183 C346,180 345,177 343,177 C341,177 340,180 341,183 C341,185 340,188 337,188 C337,188 336,187 336,185 Z M135,165 C139,164 140,162 138,159 C136,157 122,159 122,162 C122,165 128,167 135,165 Z M459,164 C461,161 459,159 451,158 C442,157 439,164 448,165 C457,166 458,166 459,164 Z M299,164 C300,163 301,163 302,164 C305,166 306,165 306,149 C306,135 305,134 304,134 C302,134 302,135 301,144 C301,158 301,157 299,156 C296,154 295,156 295,160 C295,164 298,167 299,164 Z M324,159 C323,157 323,154 322,153 C322,152 322,152 325,152 C327,153 328,153 329,151 C331,148 329,147 326,148 C323,148 323,148 323,146 C323,145 325,144 327,144 C330,143 333,142 336,138 C339,136 341,134 342,134 C343,136 338,144 335,144 C333,145 333,146 333,148 C334,149 333,152 330,156 C325,164 324,164 324,159 Z M267,160 C267,159 266,157 264,155 C261,151 261,150 265,150 C268,150 267,148 263,147 C259,146 259,146 256,141 C252,135 250,127 252,126 C253,125 253,125 255,132 C256,138 260,142 265,143 C271,144 273,150 270,159 C270,161 267,162 267,160 Z M592,141 C592,133 591,131 587,134 C584,137 586,149 590,149 C592,149 592,148 592,141 Z M222,120 C221,120 220,119 220,119 C219,118 229,116 234,116 C238,117 238,117 233,119 C228,121 226,121 222,120 Z M265,114 C265,114 263,112 260,110 C254,107 255,102 262,104 C264,105 267,113 266,115 C265,115 265,115 265,114 Z M230,101 C230,100 230,99 231,99 C234,95 225,92 219,94 C217,96 216,96 211,93 C205,90 203,88 206,88 C207,88 209,87 211,86 C216,85 219,86 217,89 C216,91 217,93 219,90 C220,88 233,91 236,94 C236,95 237,95 238,95 C238,94 238,93 237,92 C235,90 240,88 243,90 C245,91 242,96 239,98 C237,99 236,100 235,101 C235,102 231,102 230,101 Z M353,99 C350,93 352,90 360,90 C372,89 381,93 374,96 C372,97 370,98 370,99 C368,101 367,100 368,98 C368,95 366,92 363,93 C362,94 361,93 360,92 C357,90 356,91 356,97 C356,101 354,103 353,99 Z M383,91 C384,89 384,89 383,88 C382,86 383,85 386,84 C392,81 399,75 401,71 C401,69 402,68 403,68 C405,68 404,71 402,74 C401,75 400,77 400,78 C400,79 398,80 396,80 C393,81 393,82 393,85 C393,87 392,88 388,90 C382,94 382,94 383,91 Z M198,81 C196,79 194,76 193,75 C192,71 192,71 193,71 C194,71 194,72 194,72 C194,74 197,77 199,77 C202,77 206,81 204,82 C202,85 202,84 198,81 Z M354,76 C352,75 348,74 345,74 C339,74 334,73 334,71 C334,70 339,70 341,71 C343,72 344,72 346,71 C348,70 349,70 351,71 C352,72 355,73 357,73 C363,73 365,74 362,76 C360,77 358,77 354,76 Z M240,75 C239,74 242,72 248,71 C255,71 256,69 253,68 C249,67 249,64 254,62 C257,61 260,59 262,57 C263,55 268,51 272,48 C276,45 283,39 287,36 C297,28 296,28 304,33 C307,36 311,38 312,38 C313,38 314,39 315,40 C316,44 323,50 327,51 C331,52 331,52 331,55 C330,57 330,61 330,64 C330,70 330,70 321,70 C314,70 311,70 306,73 C299,75 299,75 293,73 C290,72 286,71 284,71 C283,71 281,70 279,69 C276,68 275,68 273,69 C271,70 269,70 268,70 C267,69 264,70 261,72 C255,75 241,77 240,75 Z M379,61 C380,59 380,59 374,56 C370,53 368,53 368,56 C368,59 378,64 379,61 Z M363,45 C363,37 362,34 360,35 C359,36 361,55 362,55 C363,54 363,51 363,45 Z M288,10 C289,9 291,8 292,8 C295,8 297,7 297,5 C297,4 296,4 293,4 C288,4 283,8 283,11 C283,14 285,14 288,10 Z" fill="#1B2A4A" fill-rule="evenodd"/>
</svg>