<svg xmlns="http://www.w3.org/2000/svg" viewBox="0 0 598 506">
  <path d="M410,359 C416,354 415,347 408,343 C398,339 397,333 406,336 C412,337 414,334 410,330 C406,326 394,333 394,340 C394,343 398,347 401,346 C406,344 411,350 406,352 C403,353 401,353 398,350 C396,347 395,347 395,350 C395,356 405,362 410,359 Z M156,356 C156,353 154,352 148,352 C143,352 143,346 148,345 C152,345 153,343 149,342 C142,341 143,335 151,335 C155,335 157,333 155,330 C153,327 142,329 140,333 C135,343 137,355 144,358 C150,360 155,359 156,356 Z M179,357 C180,356 181,353 181,351 C182,344 184,343 184,350 C184,358 187,358 190,350 C191,345 191,343 189,337 C186,327 179,328 179,338 C180,348 173,351 171,341 C169,328 162,328 161,342 C161,353 164,359 166,352 C168,348 169,349 172,354 C174,359 177,360 179,357 Z M234,354 C236,348 239,348 243,353 C246,357 249,358 251,356 C251,355 250,354 249,352 C245,348 245,348 248,340 C250,334 250,334 244,332 C232,327 225,330 228,336 C230,341 231,348 229,352 C227,354 227,355 229,357 C231,360 233,359 234,354 Z M284,355 C284,354 283,352 282,351 C280,348 281,346 283,342 C287,334 283,328 275,329 C267,330 264,335 264,344 C264,353 268,358 270,352 C272,347 275,348 277,354 C279,359 284,361 284,355 Z M308,357 C309,354 307,353 301,353 C295,352 294,349 300,346 C305,344 305,343 300,341 C293,339 294,335 302,335 C307,335 308,334 308,332 C308,327 304,327 293,331 C288,333 288,353 293,356 C300,359 307,360 308,357 Z M334,358 C335,356 335,352 334,351 C332,350 329,342 329,337 C329,330 325,327 321,333 C320,334 318,336 317,338 C316,340 315,342 314,344 C314,346 313,349 312,351 C309,358 311,359 317,354 C321,349 328,350 328,355 C328,358 332,360 334,358 Z M356,358 C358,355 356,353 351,353 C346,352 346,352 346,346 C346,337 342,328 340,335 C337,346 340,357 346,357 C348,357 350,357 351,358 C353,359 355,359 356,358 Z M387,357 C389,355 387,353 382,352 C376,351 375,345 382,345 C386,345 387,344 382,342 C375,340 376,335 384,335 C387,335 389,332 387,329 C382,323 370,333 370,344 C370,355 381,364 387,357 Z M462,358 C464,356 463,355 460,349 C457,345 456,342 456,338 C456,326 446,330 442,344 C441,347 440,350 439,352 C436,358 438,359 444,354 C448,349 455,349 455,354 C455,357 460,360 462,358 Z M132,356 C132,354 131,352 131,350 C129,347 129,347 132,344 C135,341 134,335 129,330 C126,326 115,329 114,334 C114,335 113,338 113,339 C112,344 112,346 114,351 C116,356 118,356 119,351 C120,347 123,347 124,351 C125,358 130,361 132,356 Z M201,356 C202,355 202,353 201,352 C200,348 200,339 201,336 C204,331 201,327 198,331 C194,335 193,344 195,351 C198,358 200,360 201,356 Z M219,357 C224,357 225,357 225,355 C225,354 223,354 219,354 C215,354 213,353 213,352 C211,350 213,347 216,347 C222,347 222,342 216,341 C209,339 211,335 219,334 C230,333 228,331 216,330 C204,329 202,331 206,337 C207,340 207,346 206,351 C204,356 205,358 209,358 C211,357 215,357 219,357 Z M431,354 C431,352 431,348 430,345 C430,338 431,335 435,335 C438,334 439,332 437,329 C436,328 431,328 428,329 C427,329 424,330 423,330 C419,331 419,333 423,334 C425,335 425,335 424,341 C424,344 424,348 425,350 C427,358 432,361 431,354 Z M506,356 C509,355 504,353 501,354 C497,354 494,353 494,351 C494,348 496,347 499,347 C501,347 503,345 502,343 C502,342 501,341 499,341 C496,341 493,339 493,337 C493,335 495,334 502,334 C505,334 506,333 506,332 C506,331 505,330 497,330 C486,330 486,330 488,336 C489,342 489,347 487,351 C485,357 486,358 496,357 C501,357 505,357 506,356 Z M96,355 C97,355 96,354 96,352 C95,349 96,347 100,347 C108,347 111,343 108,336 C102,322 91,326 87,343 C86,348 93,359 96,355 Z M475,351 C476,349 476,345 476,341 C476,335 476,335 480,335 C483,335 484,334 484,332 C484,329 484,329 462,330 C461,330 461,331 461,332 C461,334 464,335 465,334 C468,332 470,335 469,341 C469,348 471,355 473,355 C473,355 474,353 475,351 Z M140,309 C141,308 144,308 145,308 C151,308 153,304 151,298 C151,297 150,298 146,302 C140,309 137,309 131,303 C127,298 125,293 127,286 C128,282 129,268 128,260 C128,254 128,254 123,254 C110,251 106,253 112,259 C114,262 114,263 114,268 C111,289 116,308 124,309 C126,310 127,310 128,310 C131,311 137,310 140,309 Z M208,309 C211,308 211,307 208,303 C207,301 205,296 203,292 C202,287 201,283 200,283 C200,283 201,281 203,279 C207,275 209,265 205,262 C198,254 188,250 184,253 C183,254 174,254 167,252 C161,251 159,255 163,259 C167,261 167,261 167,273 C167,281 167,286 166,288 C164,291 164,292 166,297 C167,301 167,303 166,305 C164,308 166,309 174,310 C184,310 184,310 181,301 C179,295 179,293 180,290 C181,282 187,282 189,291 C192,305 201,314 208,309 Z M336,310 C340,309 340,307 337,302 C332,294 330,283 332,281 C334,278 337,271 337,267 C337,261 323,251 316,253 C312,253 301,253 295,253 C290,252 290,255 294,259 C298,263 299,279 295,288 C294,292 294,293 295,296 C296,300 297,302 296,306 C295,309 298,310 306,310 C312,310 313,309 311,303 C308,295 309,286 312,284 C314,283 317,285 318,289 C320,303 328,313 336,310 Z M50,308 C50,307 49,305 47,303 C43,300 42,293 45,285 C46,281 46,280 45,277 C43,272 43,264 44,261 C46,256 54,260 56,267 C57,271 59,272 60,269 C64,258 62,250 56,253 C55,254 52,254 48,254 C42,253 39,253 22,253 C11,254 12,253 14,264 C15,271 16,271 19,266 C22,258 29,257 30,263 C31,266 31,269 28,279 C28,280 29,284 29,287 C32,295 31,300 26,304 C20,309 22,310 37,310 C48,310 50,309 50,308 Z M107,309 C108,307 108,307 107,304 C106,303 105,299 104,296 C103,292 102,289 100,288 C99,287 97,283 96,280 C96,277 94,272 92,270 C91,267 90,263 90,261 C90,253 85,250 82,254 C77,260 73,267 71,276 C69,281 67,286 66,287 C63,291 62,294 62,298 C62,300 61,303 60,304 C58,308 59,309 66,309 C73,308 75,306 70,305 C67,304 67,295 70,291 C72,288 79,287 82,289 C86,292 91,302 90,305 C89,310 104,313 107,309 Z M237,309 C238,309 236,305 234,302 C228,295 227,291 229,285 C230,281 230,279 229,275 C227,267 234,255 241,255 C248,255 255,266 253,275 C253,279 253,283 254,285 C256,291 254,296 249,303 C244,309 245,310 251,310 C254,309 256,308 258,306 C259,305 262,301 265,299 C272,292 272,283 266,269 C262,260 262,260 252,255 C241,250 241,250 228,257 C219,261 216,267 214,282 C213,293 213,293 220,301 C223,304 225,307 225,307 C225,309 236,311 237,309 Z M364,309 C365,307 365,307 364,305 C362,302 361,286 364,284 C366,282 369,284 370,287 C371,292 371,292 373,292 C375,292 375,291 375,289 C375,271 375,271 370,275 C367,277 363,278 363,275 C361,272 362,261 364,260 C368,255 379,259 379,265 C379,271 385,273 386,268 C386,263 384,256 382,255 C375,253 371,252 367,253 C365,253 359,253 354,253 C344,254 342,254 345,258 C346,259 347,263 347,266 C349,284 349,285 347,289 C346,293 346,293 347,297 C349,300 349,302 348,304 C348,309 349,310 357,310 C361,310 363,310 364,309 Z M386,309 C387,307 387,296 386,293 C384,290 383,291 381,295 C380,297 378,301 376,303 C373,307 373,308 375,309 C377,310 384,310 386,309 Z M438,307 C438,297 436,292 433,288 C431,286 428,282 428,279 C427,277 425,272 424,269 C422,266 421,262 421,259 C421,251 414,250 410,258 C410,260 408,262 407,264 C406,265 405,268 404,272 C403,275 402,278 401,279 C400,281 399,283 399,286 C399,291 395,300 392,302 C387,307 391,310 399,309 C403,308 404,307 401,305 C396,301 401,289 407,288 C410,287 410,287 408,286 C404,285 406,273 410,273 C413,273 416,285 414,286 C413,287 413,288 415,290 C421,297 423,302 423,305 C422,309 425,310 433,310 C438,310 438,309 438,307 Z M465,309 C465,308 465,307 463,303 C461,299 461,298 461,291 C462,281 462,278 461,268 C461,263 461,260 462,258 C463,255 464,255 456,254 C443,252 440,253 446,259 C450,262 450,268 448,275 C446,279 446,282 448,286 C449,289 449,295 448,306 C447,309 462,312 465,309 Z M486,308 C488,306 485,295 483,294 C483,294 481,296 479,299 C478,302 476,304 474,305 C471,307 471,308 475,309 C480,310 485,310 486,308 Z M517,308 C517,308 516,305 515,303 C514,301 514,298 514,293 C514,282 514,274 514,267 C513,255 519,253 523,264 C526,271 528,272 529,267 C530,265 531,262 531,260 C533,254 526,250 519,253 C515,255 515,255 499,252 C495,252 486,254 485,256 C484,258 484,269 485,269 C485,269 488,266 490,263 C498,254 502,255 499,265 C499,268 499,270 500,272 C501,276 501,286 499,288 C498,291 498,294 500,298 C501,301 501,302 500,305 C498,308 500,310 510,310 C515,310 516,310 517,308 Z M567,309 C567,308 566,305 565,302 C561,294 564,279 570,273 C573,269 576,264 576,261 C576,260 577,258 578,257 C580,254 578,252 574,252 C569,252 568,254 569,259 C569,263 569,264 567,267 C565,269 564,270 564,274 C564,278 564,279 563,279 C560,279 558,276 558,273 C558,270 557,269 555,267 C553,265 552,264 552,262 C553,252 553,252 548,253 C536,253 530,256 535,260 C536,260 539,264 540,268 C542,272 545,277 547,279 C549,282 549,283 549,289 C549,293 549,297 550,299 C551,301 551,303 550,305 C549,308 549,308 552,309 C557,310 566,310 567,309 Z M153,279 C154,276 154,270 155,266 C155,262 156,258 156,257 C158,255 155,254 149,254 C143,254 140,255 144,257 C148,258 148,259 148,266 C149,269 149,274 149,276 C151,288 152,289 153,279 Z M181,280 C180,279 181,259 182,258 C184,256 192,261 193,264 C195,270 193,274 188,277 C183,281 182,281 181,280 Z M311,279 C306,270 310,255 317,257 C320,258 323,272 321,277 C320,280 313,282 311,279 Z M313,215 C315,212 319,210 321,209 C326,206 334,192 334,189 C332,178 332,177 336,169 C339,163 341,160 344,157 C346,156 348,153 348,151 C349,150 350,147 352,144 C354,142 354,139 354,136 C354,130 355,130 358,132 C362,134 375,133 383,129 C387,127 390,126 391,126 C397,126 396,120 389,113 C382,107 382,106 392,104 C397,103 398,102 399,100 C400,98 403,95 406,93 C409,89 411,87 412,85 C412,83 413,80 415,78 C417,74 417,73 416,70 C415,65 415,59 416,55 C417,52 417,51 415,48 C414,46 413,42 412,40 C410,36 409,34 406,32 C404,31 402,28 401,25 C399,21 397,20 394,21 C392,22 393,24 396,29 C400,35 400,42 397,46 C396,48 395,50 395,54 C395,60 392,65 388,66 C387,67 386,68 385,69 C383,73 378,75 373,74 C370,74 368,74 365,76 C359,79 353,80 349,77 C347,76 344,76 338,76 C331,76 329,75 325,73 C320,70 317,70 310,74 C303,78 300,78 295,75 C292,73 290,73 288,73 C286,74 281,73 276,72 C267,71 269,70 258,76 C253,79 249,79 245,76 C242,74 242,74 238,76 C232,79 225,78 220,74 C219,73 217,72 215,72 C211,71 207,68 206,64 C205,62 203,59 201,58 C196,55 194,44 198,38 C199,36 200,34 199,34 C199,33 198,30 198,28 C197,18 190,20 188,30 C188,34 184,38 181,38 C180,38 180,39 181,42 C181,47 180,54 177,58 C174,62 175,64 177,68 C180,72 182,80 181,83 C181,83 183,85 185,87 C187,89 190,92 191,94 C192,98 194,99 195,99 C197,99 205,103 209,106 C212,108 211,109 206,111 C201,112 199,116 199,119 C201,123 213,132 217,132 C218,132 220,133 222,134 C227,136 230,136 233,134 C239,129 242,132 243,144 C243,150 244,151 246,154 C248,155 250,158 251,160 C252,163 255,166 257,168 C260,172 261,173 261,180 C263,203 264,204 270,207 C272,209 275,211 276,213 C279,217 281,217 290,217 C293,217 298,217 299,218 C304,220 307,219 313,215 Z M348,201 C353,199 360,198 364,200 C367,202 372,202 374,201 C374,200 378,199 382,199 C388,198 388,198 388,193 C388,190 389,187 390,183 C392,178 392,178 390,174 C388,168 388,162 390,156 C392,152 392,152 390,148 C389,146 388,142 388,140 C387,136 387,136 384,136 C379,136 378,137 381,150 C381,153 381,156 379,160 C378,165 378,165 380,171 C384,187 377,194 359,189 C357,189 355,189 353,189 C352,190 348,191 345,191 C336,192 335,201 344,203 C344,203 346,202 348,201 Z M221,200 C226,199 233,199 236,200 C237,201 240,202 242,202 C243,202 246,201 247,200 C248,200 251,199 252,199 C256,199 258,195 257,192 C256,189 256,189 252,189 C240,191 238,191 234,189 C230,188 229,188 226,189 C218,191 217,191 216,189 C214,188 214,185 217,182 C219,180 218,178 216,173 C214,169 214,161 216,155 C217,153 217,151 216,149 C215,147 215,144 214,143 C214,140 209,135 207,135 C203,135 202,140 204,145 C207,150 206,154 204,160 C202,165 202,165 204,170 C206,176 207,180 204,185 C200,196 210,205 221,200 Z M274,194 C272,191 271,189 271,188 C271,186 278,174 280,172 C285,167 285,139 280,133 C278,131 275,128 274,126 C273,124 270,121 267,119 C264,117 260,115 260,114 C259,113 257,111 255,110 C251,108 251,104 254,98 C258,90 259,88 260,86 C262,82 272,81 277,84 C279,85 282,85 284,85 C287,84 291,85 295,86 C303,88 306,88 310,84 C314,81 323,80 326,84 C327,85 329,86 331,86 C336,88 341,98 341,107 C341,110 341,110 336,112 C332,113 329,115 328,117 C326,119 323,121 321,122 C317,124 315,127 314,132 C313,134 312,137 311,138 C309,140 309,140 310,145 C311,148 311,153 311,157 C310,161 311,163 312,166 C313,168 314,171 314,173 C315,175 315,177 315,178 C316,179 314,181 310,184 C306,186 303,190 303,191 C301,198 288,197 288,191 C288,188 283,183 280,183 C275,183 274,186 278,192 C280,195 280,198 278,198 C277,198 275,196 274,194 Z M313,196 C312,194 312,193 313,192 C314,190 316,188 317,186 C322,179 325,187 321,195 C320,199 315,199 313,196 Z M265,164 C264,161 263,158 263,157 C263,156 262,155 261,155 C258,153 255,149 255,145 C255,142 254,139 252,135 C248,128 248,120 252,120 C255,120 257,123 258,130 C258,136 258,136 265,139 C274,142 274,141 274,153 C273,170 270,174 265,164 Z M322,166 C321,165 321,159 321,153 C320,142 320,142 326,141 C332,141 334,140 337,132 C341,121 342,120 343,131 C344,140 340,150 332,157 C330,160 327,163 327,165 C325,169 324,169 322,166 Z M219,122 C213,119 215,116 224,116 C227,116 232,115 234,115 C242,112 243,117 235,122 C230,124 225,125 219,122 Z M359,122 C357,122 355,116 356,116 C357,115 359,115 361,114 C369,112 383,117 379,121 C378,122 362,123 359,122 Z M185,113 C188,111 191,109 192,108 C196,106 194,99 189,99 C188,99 186,100 185,102 C184,103 180,106 177,108 C170,112 170,117 177,117 C180,117 182,116 185,113 Z M417,115 C421,115 422,113 419,109 C417,107 415,105 414,105 C413,105 412,104 410,104 C407,101 399,102 399,104 C399,109 410,118 413,116 C414,115 416,115 417,115 Z M351,104 C350,102 348,94 347,90 C347,87 349,86 352,89 C355,90 358,90 363,87 C367,85 369,85 375,85 C381,85 382,85 383,82 C384,81 387,79 390,79 C395,77 397,75 398,71 C399,68 403,64 404,64 C406,64 407,72 406,75 C401,84 394,93 390,93 C389,93 387,94 384,96 C381,99 380,99 375,99 C369,99 368,100 364,102 C359,105 353,106 351,104 Z M225,102 C224,101 222,100 221,100 C220,99 217,97 214,97 C210,95 208,94 206,92 C205,90 202,88 199,87 C196,85 194,84 194,81 C193,80 191,76 190,72 C188,68 187,65 187,62 C188,56 189,56 193,64 C197,72 205,79 215,83 C219,84 223,86 225,87 C228,89 229,89 233,88 C244,85 250,87 246,93 C245,95 243,98 242,99 C240,103 231,104 225,102 Z M242,69 C243,66 245,65 247,64 C253,63 255,62 257,59 C259,56 261,54 264,53 C266,52 269,50 270,47 C272,45 275,42 278,41 C281,39 283,38 285,35 C287,32 296,26 299,26 C301,26 305,30 305,32 C305,34 307,35 309,35 C315,37 319,40 320,43 C321,45 323,46 327,47 C333,49 334,49 335,42 C336,35 337,33 342,33 C348,33 350,37 346,45 C344,50 344,50 346,54 C347,57 348,59 348,60 C348,62 351,67 353,68 C356,70 366,72 366,71 C367,70 361,61 358,58 C354,54 354,47 357,42 C363,32 349,18 339,24 C338,24 335,25 333,25 C329,25 326,27 325,30 C324,32 324,32 320,28 C317,25 315,23 312,23 C308,22 306,20 305,15 C303,10 295,14 283,24 C280,27 277,29 275,30 C274,31 271,33 268,36 C265,38 262,40 260,40 C259,40 258,41 257,42 C256,46 251,49 247,51 C243,51 242,52 241,55 C239,58 238,59 235,60 C224,63 223,67 232,71 C239,74 240,74 242,69 Z" fill="#B5942D" fill-rule="evenodd"/>
</svg>